<svg width="32" height="32" viewBox="0 0 32 32" xmlns="http://www.w3.org/2000/svg">
  <rect width="32" height="32" rx="7" fill="#0F4A32"/>
  <g transform="translate(10, 4) scale(0.36)">
    <path d="M16 72 L16 28" stroke="#5DB88C" stroke-width="5" stroke-linecap="round"/>
    <path d="M16 44 C22 39, 28 28, 26 18 C24 18, 20 24, 16 34" fill="#5DB88C" opacity="0.8"/>
    <path d="M16 50 C10 46, 4 36, 5 26 C7 26, 12 30, 16 40" fill="#5DB88C" opacity="0.65"/>
    <path d="M16 28 C13 21, 12 13, 13 6 C15 4, 17 4, 19 6 C20 13, 19 21, 16 28Z" fill="#E8C456"/>
  </g>
</svg>
