<svg width="360" height="100" viewBox="0 0 360 100" xmlns="http://www.w3.org/2000/svg">
  <!-- Icon mark -->
  <g transform="translate(20, 10)">
    <!-- Rice grain / growth arrow base -->
    <path d="M32 78 L32 30" stroke="#1B6B4A" stroke-width="3.5" stroke-linecap="round"/>
    <!-- Left leaf / grain -->
    <path d="M32 55 C22 50, 12 38, 14 24 C16 24, 28 30, 32 42" fill="#1B6B4A" opacity="0.7"/>
    <!-- Right leaf / grain -->
    <path d="M32 48 C42 42, 52 28, 48 16 C46 16, 38 24, 32 36" fill="#1B6B4A" opacity="0.85"/>
    <!-- Top grain (central, golden) -->
    <path d="M32 30 C28 22, 26 12, 28 4 C30 2, 34 2, 36 4 C38 12, 36 22, 32 30Z" fill="#D4A12A"/>
    <!-- Small accent grains -->
    <path d="M32 62 C26 58, 20 50, 22 42 C24 42, 28 46, 32 54" fill="#1B6B4A" opacity="0.5"/>
    <path d="M32 58 C38 54, 44 44, 42 36 C40 36, 36 40, 32 50" fill="#1B6B4A" opacity="0.6"/>
    <!-- Growth dots (subtle chart reference) -->
    <circle cx="16" cy="70" r="2.5" fill="#D4A12A" opacity="0.4"/>
    <circle cx="24" cy="64" r="2.5" fill="#D4A12A" opacity="0.6"/>
    <circle cx="40" cy="66" r="2.5" fill="#D4A12A" opacity="0.5"/>
    <circle cx="48" cy="72" r="2.5" fill="#D4A12A" opacity="0.35"/>
  </g>
  <!-- Wordmark -->
  <text x="100" y="64" font-family="'Plus Jakarta Sans', sans-serif" font-size="48" font-weight="800" fill="#0F4A32" letter-spacing="-1">panen</text>
  <!-- Tagline -->
  <text x="102" y="84" font-family="'DM Sans', sans-serif" font-size="12.5" fill="#6B7280" letter-spacing="0.5">Harvest your IDX investments</text>
</svg>
